<?xml version="1.0" encoding="utf-8"?>
<!-- Generator: Adobe Illustrator 16.0.2, SVG Export Plug-In . SVG Version: 6.00 Build 0)  -->
<!DOCTYPE svg PUBLIC "-//W3C//DTD SVG 1.1//EN" "http://www.w3.org/Graphics/SVG/1.1/DTD/svg11.dtd">
<svg version="1.1" id="Layer_1" xmlns="http://www.w3.org/2000/svg" xmlns:xlink="http://www.w3.org/1999/xlink" x="0px" y="0px"
	 width="667px" height="190px" viewBox="0 0 667 190" enable-background="new 0 0 667 190" xml:space="preserve">
<path fill="none" stroke="#FFFFFF" stroke-miterlimit="10" d="M111.503,105.287C107.252,91.511,94.42,81.5,79.25,81.5
	c-10.386,0-19.672,4.695-25.863,12.074c-2.167-0.535-4.43-0.824-6.762-0.824c-9.214,0-17.392,4.431-22.522,11.278
	C23.737,104.01,23.37,104,23,104c-12.426,0-22.5,10.074-22.5,22.5S10.574,149,23,149h81c12.426,0,22.5-10.074,22.5-22.5
	C126.5,116.706,120.239,108.377,111.503,105.287z"/>
<path fill="none" stroke="#FFFFFF" stroke-miterlimit="10" d="M381.504,24.287C377.252,10.511,364.42,0.5,349.25,0.5
	c-10.386,0-19.672,4.695-25.863,12.074c-2.166-0.535-4.43-0.824-6.762-0.824c-9.214,0-17.393,4.431-22.521,11.278
	C293.737,23.01,293.37,23,293,23c-12.426,0-22.5,10.074-22.5,22.5S280.574,68,293,68h81c12.426,0,22.5-10.074,22.5-22.5
	C396.5,35.706,390.239,27.377,381.504,24.287z"/>
<path fill="none" stroke="#FFFFFF" stroke-miterlimit="10" d="M651.504,145.787C647.252,132.011,634.42,122,619.25,122
	c-10.386,0-19.672,4.695-25.863,12.074c-2.166-0.535-4.43-0.824-6.762-0.824c-9.214,0-17.393,4.431-22.521,11.278
	c-0.366-0.018-0.733-0.028-1.104-0.028c-12.426,0-22.5,10.074-22.5,22.5s10.074,22.5,22.5,22.5h81c12.426,0,22.5-10.074,22.5-22.5
	C666.5,157.206,660.239,148.877,651.504,145.787z"/>
</svg>
