<?xml version="1.0" encoding="utf-8"?>
<!-- Generator: Adobe Illustrator 16.0.2, SVG Export Plug-In . SVG Version: 6.00 Build 0)  -->
<!DOCTYPE svg PUBLIC "-//W3C//DTD SVG 1.1//EN" "http://www.w3.org/Graphics/SVG/1.1/DTD/svg11.dtd">
<svg version="1.1" id="Layer_1" xmlns="http://www.w3.org/2000/svg" xmlns:xlink="http://www.w3.org/1999/xlink" x="0px" y="0px"
	 width="1036.371px" height="383.664px" viewBox="0 0 1036.371 383.664" enable-background="new 0 0 1036.371 383.664"
	 xml:space="preserve">
<g>
	<line fill="none" stroke="#2D654A" stroke-miterlimit="10" x1="939.219" y1="307.596" x2="1036.371" y2="307.596"/>
	<line fill="none" stroke="#2D654A" stroke-miterlimit="10" x1="297.137" y1="307.596" x2="388.708" y2="307.596"/>
	<polygon fill="#165481" points="131.603,174.079 172.442,54.2 191.304,54.2 230.393,163.78 223.524,204.171 181.803,87.292 
		140.823,209.357 	"/>
	<polygon fill="#165481" points="0,0 56.759,0 180.998,267.236 152.803,327.361 	"/>
	<polygon fill="#165481" points="304.913,0 362.144,0 178.677,383.664 152.803,326.83 	"/>
	<polygon fill="#165481" points="150.708,0 171.472,46.754 192.193,46.754 215.011,0 	"/>
</g>
<g>
	<g>
		<path fill="#165481" stroke="#3E6A74" stroke-width="0.5" stroke-miterlimit="10" d="M335.329,209.357
			c0,1.102,0.27,2.014,0.807,2.733c0.537,0.722,1.221,1.345,2.045,1.869c0.828,0.524,1.713,1.004,2.656,1.437
			c0.945,0.434,1.83,0.898,2.656,1.396c0.828,0.499,1.508,1.082,2.047,1.751c0.537,0.669,0.807,1.502,0.807,2.499
			c0,0.786-0.041,1.488-0.119,2.104c-0.078,0.617-0.203,1.207-0.373,1.771s-0.389,1.128-0.65,1.691
			c-0.261,0.564-0.576,1.201-0.943,1.908c2.125,0.498,3.975,1.338,5.549,2.519c1.574,1.181,2.891,2.538,3.953,4.071
			c1.063,1.535,1.855,3.162,2.381,4.879c0.525,1.72,0.787,3.353,0.787,4.899l0.078,8.773c0,1.627-0.348,3.364-1.043,5.214
			c-0.695,1.85-1.719,3.566-3.068,5.154c-1.352,1.588-3.037,2.904-5.057,3.953c-2.02,1.051-4.34,1.574-6.965,1.574
			c-2.648,0-4.982-0.484-7.002-1.455c-2.021-0.971-3.705-2.224-5.057-3.759c-1.352-1.534-2.367-3.245-3.049-5.135
			c-0.682-1.888-1.023-3.765-1.023-5.626v-8.617c0-1.757,0.262-3.527,0.787-5.313c0.523-1.782,1.371-3.437,2.539-4.957
			c1.166-1.521,2.66-2.834,4.484-3.936c1.822-1.102,4.033-1.849,6.629-2.242c0.395-0.943,0.703-1.744,0.926-2.399
			c0.223-0.655,0.393-1.252,0.512-1.79c0.117-0.537,0.189-1.043,0.215-1.516c0.027-0.473,0.039-1.01,0.039-1.612
			c-0.025-0.655-0.313-1.22-0.863-1.692c-0.551-0.472-1.24-0.931-2.066-1.377c-0.828-0.445-1.711-0.904-2.656-1.377
			s-1.824-1.043-2.637-1.712c-0.813-0.669-1.488-1.456-2.025-2.36c-0.537-0.904-0.807-2.013-0.807-3.324h5.506V209.357z
			 M330.254,252.718c0,1.573,0.203,3.095,0.609,4.563c0.406,1.47,1.043,2.768,1.906,3.896c0.867,1.128,1.969,2.026,3.307,2.695
			c1.338,0.669,2.938,1.003,4.799,1.003c1.941,0,3.588-0.366,4.939-1.102c1.35-0.733,2.445-1.672,3.285-2.813
			c0.838-1.142,1.449-2.399,1.83-3.776c0.379-1.377,0.57-2.709,0.57-3.994v-7.986c0-1.363-0.217-2.773-0.648-4.229
			c-0.434-1.457-1.09-2.774-1.969-3.955c-0.879-1.181-1.986-2.15-3.324-2.912c-1.338-0.76-2.898-1.141-4.684-1.141
			c-1.914,0-3.547,0.334-4.898,1.004c-1.351,0.668-2.445,1.566-3.285,2.694c-0.84,1.128-1.455,2.453-1.848,3.974
			c-0.395,1.521-0.59,3.123-0.59,4.801L330.254,252.718L330.254,252.718z"/>
		<path fill="#165481" stroke="#3E6A74" stroke-width="0.5" stroke-miterlimit="10" d="M403.157,245.753
			c-0.027,2.597-0.238,5.192-0.629,7.791c-0.396,2.597-1.043,4.997-1.949,7.2c-0.904,2.203-2.117,4.092-3.641,5.666
			c-1.521,1.572-3.422,2.623-5.704,3.146l-0.473-4.683c0.945,0,1.836-0.419,2.676-1.259s1.574-2.065,2.203-3.68
			c0.628-1.613,1.126-3.586,1.496-5.922c0.367-2.334,0.552-4.996,0.552-7.986V231.43c0-2.701-0.158-5.129-0.474-7.279
			s-0.858-3.967-1.633-5.449c-0.773-1.48-1.824-2.616-3.148-3.403c-1.324-0.787-3.01-1.181-5.055-1.181
			c-2.258,0-4.1,0.4-5.529,1.199c-1.43,0.802-2.545,1.955-3.346,3.463c-0.801,1.51-1.352,3.352-1.652,5.529
			c-0.301,2.176-0.451,4.629-0.451,7.356v14.36c0,2.938,0.131,5.574,0.393,7.91c0.262,2.334,0.629,4.308,1.102,5.92
			c0.473,1.613,1.057,2.854,1.752,3.72c0.693,0.864,1.475,1.298,2.342,1.298l-0.08,4.684c-1.549-0.289-2.893-0.847-4.033-1.673
			c-1.141-0.827-2.117-1.836-2.93-3.03c-0.814-1.192-1.484-2.543-2.008-4.053c-0.525-1.508-0.932-3.082-1.219-4.722
			c-0.289-1.64-0.492-3.317-0.611-5.036c-0.117-1.718-0.178-3.391-0.178-5.018v-14.203c0-1.731,0.094-3.488,0.277-5.272
			c0.184-1.782,0.496-3.508,0.943-5.174c0.447-1.665,1.057-3.228,1.83-4.683s1.758-2.729,2.949-3.816
			c1.195-1.088,2.625-1.947,4.289-2.577c1.668-0.63,3.613-0.944,5.844-0.944c2.256,0,4.23,0.275,5.922,0.826
			c1.692,0.551,3.133,1.313,4.329,2.282c1.192,0.972,2.17,2.14,2.932,3.502c0.76,1.364,1.363,2.866,1.811,4.505
			c0.445,1.641,0.755,3.385,0.925,5.233s0.256,3.758,0.256,5.726L403.157,245.753z"/>
		<path fill="#165481" stroke="#3E6A74" stroke-width="0.5" stroke-miterlimit="10" d="M443.793,221.909
			c0,0.708-0.129,1.463-0.391,2.263c-0.265,0.801-0.625,1.587-1.082,2.36c-0.461,0.774-1.021,1.515-1.674,2.223
			c-0.656,0.709-1.378,1.325-2.164,1.851c2.778,0,5.227,0.445,7.338,1.338c2.11,0.892,3.875,2.078,5.293,3.561
			c1.416,1.482,2.483,3.176,3.207,5.076c0.721,1.902,1.082,3.875,1.082,5.922v6.452c0,2.78-0.429,5.207-1.279,7.278
			c-0.854,2.072-2.041,3.797-3.561,5.175c-1.523,1.377-3.313,2.413-5.371,3.108c-2.06,0.694-4.298,1.043-6.709,1.043
			c-2.361,0-4.564-0.349-6.611-1.043c-2.045-0.695-3.828-1.731-5.35-3.108c-1.522-1.378-2.716-3.103-3.58-5.175
			c-0.867-2.071-1.3-4.498-1.3-7.278v-6.218c0-1.756,0.183-3.311,0.552-4.661c0.366-1.351,0.877-2.552,1.532-3.601
			c0.656-1.05,1.418-1.961,2.283-2.734s1.797-1.463,2.795-2.065c-3.961-0.394-6.887-1.6-8.774-3.62
			c-1.89-2.02-2.834-4.787-2.834-8.302v-1.851c0-1.678,0.328-3.166,0.983-4.465c0.656-1.299,1.566-2.4,2.734-3.306
			s2.559-1.594,4.172-2.065c1.613-0.473,3.389-0.709,5.332-0.709c2.412,0,4.471,0.257,6.176,0.769
			c1.705,0.513,3.09,1.228,4.152,2.146c1.062,0.918,1.836,2.025,2.32,3.324c0.483,1.299,0.727,2.733,0.727,4.309L443.793,221.909
			L443.793,221.909z M438.719,220.061c0-0.996-0.256-1.869-0.768-2.617s-1.166-1.362-1.967-1.85
			c-0.802-0.484-1.687-0.852-2.656-1.102c-0.971-0.249-1.914-0.374-2.832-0.374c-2.521,0-4.521,0.499-6,1.495
			c-1.484,0.998-2.226,2.506-2.226,4.525v2.989c0,0.972,0.171,1.862,0.513,2.677c0.342,0.813,0.858,1.514,1.555,2.104
			c0.693,0.591,1.566,1.057,2.615,1.396c1.051,0.342,2.283,0.512,3.699,0.512c0.891,0,1.811-0.131,2.754-0.395
			c0.944-0.262,1.811-0.669,2.598-1.22c0.787-0.552,1.436-1.245,1.947-2.085s0.768-1.836,0.768-2.99V220.061L438.719,220.061z
			 M427.034,252.049c0,2.178,0.301,4.064,0.903,5.665c0.604,1.601,1.423,2.933,2.46,3.994c1.036,1.062,2.247,1.856,3.639,2.381
			c1.391,0.525,2.875,0.786,4.447,0.786c1.627,0,3.135-0.281,4.524-0.846c1.392-0.563,2.59-1.396,3.601-2.498
			c1.01-1.104,1.797-2.479,2.36-4.133c0.563-1.651,0.847-3.565,0.847-5.743v-3.62c0-2.203-0.283-4.105-0.847-5.705
			s-1.352-2.918-2.36-3.954c-1.01-1.036-2.209-1.812-3.601-2.321c-1.391-0.512-2.897-0.768-4.524-0.768
			c-1.572,0-3.058,0.216-4.447,0.648c-1.392,0.434-2.603,1.135-3.639,2.104c-1.037,0.972-1.855,2.217-2.46,3.737
			c-0.604,1.521-0.903,3.385-0.903,5.588V252.049z"/>
		<path fill="#165481" stroke="#3E6A74" stroke-width="0.5" stroke-miterlimit="10" d="M502.69,253.426
			c0,2.467-0.354,4.688-1.063,6.67c-0.709,1.98-1.736,3.672-3.088,5.075c-1.353,1.403-3.023,2.485-5.016,3.246
			c-1.996,0.761-4.289,1.142-6.888,1.142c-2.36,0-4.524-0.375-6.492-1.121c-1.969-0.748-3.672-1.824-5.114-3.228
			c-1.443-1.403-2.564-3.108-3.365-5.114c-0.801-2.008-1.199-4.257-1.199-6.748V220.65c0-1.812,0.25-3.385,0.748-4.723
			s1.174-2.438,2.025-3.306c0.852-0.865,1.854-1.508,3.012-1.929c1.152-0.418,2.387-0.629,3.697-0.629
			c1.102,0,2.188,0.099,3.266,0.295c1.076,0.197,2.146,0.42,3.207,0.67c1.063,0.248,2.1,0.472,3.107,0.668
			c1.012,0.197,1.987,0.296,2.934,0.296c0.785,0,1.527-0.06,2.223-0.179c0.693-0.117,1.39-0.287,2.086-0.51
			c0.693-0.224,1.429-0.498,2.203-0.828c0.773-0.326,1.633-0.701,2.576-1.121v4.093c-1.731,1.05-3.346,1.798-4.84,2.243
			s-3.068,0.668-4.721,0.668c-0.974,0-1.91-0.078-2.814-0.235s-1.797-0.334-2.674-0.531c-0.881-0.196-1.766-0.374-2.656-0.53
			c-0.893-0.157-1.811-0.235-2.754-0.235c-1.022-0.026-1.896,0.11-2.617,0.413c-0.723,0.302-1.313,0.728-1.771,1.277
			c-0.458,0.551-0.793,1.2-1.002,1.947c-0.211,0.748-0.316,1.555-0.316,2.42v13.104c0.813-1.26,1.691-2.309,2.637-3.147
			s1.908-1.508,2.892-2.007c0.983-0.498,1.955-0.846,2.914-1.043c0.957-0.195,1.867-0.295,2.733-0.295
			c2.597,0,4.892,0.453,6.886,1.357c1.993,0.904,3.678,2.104,5.057,3.601c1.375,1.495,2.418,3.22,3.127,5.174
			s1.063,3.968,1.063,6.04v9.758H502.69z M497.221,243.902c0-1.678-0.225-3.238-0.67-4.682c-0.444-1.443-1.106-2.688-1.985-3.738
			c-0.88-1.049-1.98-1.869-3.306-2.459c-1.326-0.59-2.865-0.885-4.623-0.885c-0.629,0-1.332,0.021-2.104,0.06
			c-0.773,0.038-1.556,0.177-2.34,0.413c-0.789,0.236-1.556,0.597-2.304,1.082c-0.748,0.484-1.416,1.16-2.006,2.025
			s-1.063,1.975-1.418,3.325c-0.354,1.351-0.531,2.997-0.531,4.938v9.363c0,1.574,0.218,3.063,0.648,4.467
			c0.434,1.402,1.082,2.623,1.949,3.658c0.865,1.037,1.967,1.863,3.305,2.479s2.912,0.924,4.723,0.924
			c3.595,0,6.271-1.028,8.025-3.088c1.758-2.06,2.637-5.03,2.637-8.912V243.902L497.221,243.902z"/>
		<path fill="#165481" stroke="#3E6A74" stroke-width="0.5" stroke-miterlimit="10" d="M548.836,256.021
			c0,2.388-0.439,4.435-1.318,6.139c-0.879,1.706-2.059,3.107-3.541,4.21c-1.48,1.103-3.193,1.907-5.135,2.42
			s-3.975,0.769-6.1,0.769c-2.334,0-4.492-0.36-6.471-1.082c-1.982-0.723-3.688-1.726-5.115-3.011
			c-1.43-1.284-2.545-2.807-3.344-4.563c-0.802-1.758-1.201-3.659-1.201-5.705c0-1.915,0.188-3.602,0.569-5.057
			c0.382-1.455,0.904-2.768,1.574-3.936c0.669-1.166,1.455-2.203,2.361-3.107c0.904-0.904,1.881-1.765,2.93-2.578l3.385,3.385
			c-0.998,0.919-1.836,1.738-2.518,2.46c-0.684,0.722-1.234,1.487-1.652,2.302c-0.422,0.813-0.723,1.736-0.904,2.773
			c-0.184,1.035-0.273,2.314-0.273,3.836c0,3.068,0.863,5.437,2.596,7.103s4.42,2.498,8.064,2.498c1.602,0,3.057-0.209,4.369-0.629
			c1.311-0.42,2.432-1.022,3.361-1.812c0.934-0.785,1.646-1.736,2.146-2.853c0.498-1.114,0.748-2.366,0.748-3.758v-33.404
			c0-1.233-0.217-2.36-0.648-3.384c-0.434-1.023-1.043-1.896-1.83-2.617s-1.744-1.283-2.873-1.691
			c-1.129-0.405-2.398-0.609-3.816-0.609c-1.441,0-2.762,0.197-3.953,0.591c-1.195,0.394-2.225,0.951-3.09,1.672
			c-0.865,0.722-1.535,1.601-2.008,2.638c-0.471,1.035-0.707,2.196-0.707,3.48c0,0.893,0.117,1.79,0.355,2.695
			c0.234,0.904,0.732,1.961,1.494,3.168l-4.053,3.068c-1.969-2.623-2.951-5.601-2.951-8.933c0-1.967,0.342-3.757,1.021-5.37
			c0.684-1.613,1.652-2.997,2.912-4.15c1.26-1.154,2.773-2.047,4.545-2.677c1.77-0.63,3.742-0.944,5.922-0.944
			c2.125,0,4.111,0.283,5.961,0.847s3.457,1.397,4.818,2.499c1.363,1.102,2.436,2.466,3.207,4.092
			c0.773,1.627,1.16,3.502,1.16,5.627v33.6H548.836z"/>
		<path fill="#165481" stroke="#3E6A74" stroke-width="0.5" stroke-miterlimit="10" d="M597.029,251.732
			c0,2.572-0.4,4.945-1.201,7.123c-0.799,2.178-1.914,4.06-3.344,5.646s-3.133,2.826-5.113,3.718
			c-1.979,0.893-4.141,1.338-6.473,1.338c-2.361,0-4.525-0.367-6.492-1.102c-1.969-0.734-3.66-1.855-5.076-3.364
			c-1.416-1.508-2.525-3.409-3.326-5.704c-0.801-2.296-1.199-5.004-1.199-8.125v-41.904h5.471v41.904
			c0,2.491,0.262,4.596,0.787,6.313c0.523,1.719,1.26,3.122,2.205,4.211c0.941,1.088,2.063,1.875,3.361,2.36
			c1.297,0.484,2.723,0.728,4.271,0.728c1.756,0,3.305-0.334,4.641-1.003c1.34-0.669,2.453-1.6,3.346-2.794
			c0.893-1.193,1.561-2.629,2.006-4.31c0.445-1.678,0.67-3.541,0.67-5.586V248.9c0-1.363-0.236-2.662-0.709-3.896
			s-1.063-2.405-1.77-3.521c-0.709-1.115-1.469-2.186-2.281-3.207c-0.814-1.023-1.574-2.026-2.283-3.01
			c-0.709-0.984-1.299-1.955-1.771-2.912s-0.707-1.935-0.707-2.933c0-1.103,0.131-2.17,0.395-3.206
			c0.264-1.035,0.799-2.145,1.611-3.324l5.51,1.534c-0.395,0.524-0.732,0.978-1.021,1.357s-0.531,0.754-0.73,1.12
			c-0.197,0.367-0.348,0.748-0.449,1.142c-0.105,0.394-0.158,0.853-0.158,1.377c0,0.972,0.242,1.915,0.729,2.833
			c0.484,0.919,1.094,1.83,1.828,2.735c0.734,0.903,1.521,1.836,2.361,2.793c0.838,0.958,1.627,1.968,2.361,3.03
			c0.732,1.062,1.344,2.189,1.826,3.384c0.486,1.192,0.73,2.497,0.73,3.915v3.619H597.029z"/>
		<path fill="#165481" stroke="#3E6A74" stroke-width="0.5" stroke-miterlimit="10" d="M660.133,253.74
			c0,2.178-0.359,4.224-1.082,6.138c-0.723,1.915-1.77,3.595-3.148,5.037c-1.375,1.442-3.068,2.577-5.074,3.403
			c-2.008,0.826-4.283,1.238-6.828,1.238c-2.438,0-4.656-0.406-6.646-1.22c-1.994-0.813-3.688-1.862-5.074-3.147
			c-1.395-1.285-2.469-2.722-3.229-4.309c-0.762-1.587-1.143-3.154-1.143-4.701v-3.463c0-0.892,0.15-1.783,0.453-2.676
			c0.301-0.893,0.709-1.736,1.221-2.538c0.51-0.8,1.094-1.534,1.75-2.203s1.336-1.239,2.047-1.712l2.91,3.305
			c-1.049,0.813-1.797,1.824-2.242,3.03c-0.443,1.207-0.668,2.374-0.668,3.502v1.849c0,1.156,0.215,2.303,0.648,3.443
			s1.088,2.172,1.967,3.09s1.986,1.658,3.326,2.223c1.336,0.563,2.896,0.846,4.68,0.846c1.969,0,3.633-0.281,4.998-0.846
			c1.363-0.563,2.467-1.352,3.305-2.36c0.84-1.01,1.443-2.19,1.813-3.542c0.367-1.352,0.551-2.813,0.551-4.387v-3.936
			c0-1.6-0.217-3.154-0.648-4.662c-0.434-1.509-1.037-2.847-1.811-4.014c-0.775-1.167-1.699-2.099-2.775-2.794
			c-1.074-0.694-2.254-1.042-3.539-1.042h-7.674v-4.723h7.318c1.021,0,1.992-0.156,2.912-0.473c0.918-0.313,1.725-0.787,2.42-1.416
			c0.693-0.63,1.246-1.41,1.65-2.342c0.406-0.931,0.609-2.025,0.609-3.285v-2.832c0-0.996-0.215-1.98-0.648-2.951
			s-0.994-1.836-1.689-2.598c-0.695-0.76-1.488-1.377-2.381-1.849c-0.895-0.474-1.797-0.709-2.715-0.709v-4.761
			c1.338,0,2.76,0.32,4.268,0.963c1.508,0.645,2.906,1.535,4.191,2.677c1.283,1.141,2.348,2.499,3.188,4.071
			c0.84,1.574,1.258,3.293,1.258,5.154v1.692c0,1.548-0.189,2.905-0.57,4.071c-0.379,1.168-0.918,2.19-1.613,3.068
			c-0.695,0.881-1.539,1.627-2.537,2.243s-2.111,1.147-3.346,1.595c1.863,0.576,3.41,1.344,4.645,2.301
			c1.232,0.959,2.215,2.072,2.951,3.346c0.732,1.271,1.252,2.688,1.553,4.249s0.453,3.233,0.453,5.017v3.938H660.133z"/>
		<path fill="#165481" stroke="#3E6A74" stroke-width="0.5" stroke-miterlimit="10" d="M730.32,250.671
			c0,1.129-0.184,2.381-0.551,3.759c-0.367,1.377-0.891,2.768-1.574,4.17c-0.68,1.403-1.5,2.769-2.457,4.092
			c-0.957,1.326-2.035,2.5-3.227,3.521c-1.195,1.023-2.492,1.85-3.895,2.479c-1.406,0.629-2.879,0.945-4.426,0.945v-4.763
			c1.469,0,2.852-0.472,4.146-1.416c1.301-0.944,2.426-2.125,3.383-3.541c0.961-1.417,1.717-2.951,2.268-4.604
			c0.551-1.652,0.822-3.174,0.822-4.563v-6.021c0-2.623-0.34-4.78-1.021-6.473c-0.68-1.691-1.521-3.017-2.516-3.975
			c-1-0.957-2.066-1.619-3.207-1.986c-1.143-0.367-2.174-0.551-3.092-0.551c-1.051,0-2.15,0.195-3.305,0.59
			c-1.156,0.395-2.219,1.057-3.188,1.987c-0.973,0.931-1.777,2.163-2.418,3.698c-0.645,1.533-0.965,3.441-0.965,5.725v8.813h-5.508
			v-8.813c0-2.282-0.316-4.189-0.945-5.725s-1.426-2.769-2.383-3.698c-0.957-0.933-2.004-1.595-3.145-1.987
			c-1.143-0.393-2.225-0.59-3.246-0.59c-1.234,0-2.441,0.184-3.621,0.551s-2.238,1.029-3.168,1.986
			c-0.93,0.958-1.684,2.281-2.262,3.975c-0.578,1.691-0.867,3.85-0.867,6.473v6.217c0,0.893,0.113,1.855,0.336,2.893
			s0.551,2.072,0.984,3.108c0.432,1.036,0.955,2.032,1.572,2.989c0.613,0.959,1.324,1.805,2.125,2.539
			c0.797,0.733,1.678,1.316,2.633,1.75c0.963,0.434,1.979,0.648,3.053,0.648v4.684c-1.785,0-3.422-0.314-4.918-0.944
			s-2.842-1.47-4.031-2.519c-1.195-1.05-2.25-2.242-3.168-3.58s-1.68-2.716-2.285-4.133c-0.602-1.416-1.055-2.813-1.355-4.189
			s-0.453-2.629-0.453-3.758v-5.705c0-2.885,0.242-5.765,0.727-8.637c0.488-2.873,1.32-5.619,2.5-8.242s2.773-5.058,4.781-7.299
			c2.008-2.244,4.543-4.197,7.613-5.863s6.723-2.971,10.957-3.914c4.238-0.944,9.16-1.418,14.777-1.418v4.762
			c-4.566,0-8.684,0.367-12.355,1.102c-3.676,0.735-6.922,1.771-9.738,3.108c-2.82,1.338-5.215,2.958-7.184,4.858
			c-1.965,1.902-3.512,4.009-4.641,6.315l3.07-0.905l4.918-1.102c1.18,0,2.371,0.053,3.578,0.156
			c1.207,0.105,2.367,0.453,3.482,1.044c1.113,0.59,2.139,1.502,3.066,2.733c0.934,1.233,1.715,2.979,2.344,5.233
			c0.758-2.256,1.652-4,2.676-5.233c1.021-1.231,2.1-2.145,3.229-2.733c1.125-0.591,2.266-0.938,3.422-1.044
			c1.152-0.104,2.254-0.156,3.305-0.156c1.941,0,3.828,0.302,5.664,0.904c1.836,0.604,3.477,1.58,4.922,2.933
			c1.441,1.351,2.594,3.128,3.461,5.331s1.297,4.893,1.297,8.066v5.942H730.32z"/>
		<path fill="#165481" stroke="#3E6A74" stroke-width="0.5" stroke-miterlimit="10" d="M776.469,256.021
			c0,2.388-0.441,4.435-1.32,6.139c-0.879,1.706-2.059,3.107-3.539,4.21s-3.195,1.907-5.137,2.42s-3.973,0.769-6.098,0.769
			c-2.336,0-4.492-0.36-6.473-1.082c-1.982-0.723-3.686-1.726-5.113-3.011c-1.43-1.284-2.547-2.807-3.344-4.563
			c-0.803-1.758-1.203-3.659-1.203-5.705c0-1.915,0.189-3.602,0.568-5.057c0.385-1.455,0.906-2.768,1.574-3.936
			c0.672-1.166,1.457-2.203,2.363-3.107c0.902-0.904,1.879-1.765,2.93-2.578l3.383,3.385c-0.994,0.919-1.836,1.738-2.516,2.46
			c-0.684,0.722-1.234,1.487-1.652,2.302c-0.422,0.813-0.723,1.736-0.904,2.773c-0.184,1.035-0.273,2.314-0.273,3.836
			c0,3.068,0.863,5.437,2.594,7.103c1.734,1.666,4.422,2.498,8.066,2.498c1.602,0,3.055-0.209,4.367-0.629
			c1.311-0.42,2.434-1.022,3.361-1.812c0.936-0.785,1.648-1.736,2.146-2.853c0.5-1.114,0.75-2.366,0.75-3.758v-33.404
			c0-1.233-0.219-2.36-0.648-3.384c-0.434-1.023-1.043-1.896-1.832-2.617c-0.785-0.721-1.742-1.283-2.871-1.691
			c-1.129-0.405-2.398-0.609-3.816-0.609c-1.441,0-2.762,0.197-3.953,0.591c-1.195,0.394-2.227,0.951-3.09,1.672
			c-0.867,0.722-1.535,1.601-2.008,2.638c-0.473,1.035-0.707,2.196-0.707,3.48c0,0.893,0.117,1.79,0.355,2.695
			c0.234,0.904,0.73,1.961,1.492,3.168l-4.051,3.068c-1.969-2.623-2.953-5.601-2.953-8.933c0-1.967,0.344-3.757,1.023-5.37
			c0.684-1.613,1.65-2.997,2.912-4.15c1.26-1.154,2.773-2.047,4.545-2.677c1.77-0.63,3.74-0.944,5.922-0.944
			c2.125,0,4.111,0.283,5.961,0.847c1.848,0.563,3.457,1.397,4.818,2.499c1.363,1.102,2.436,2.466,3.207,4.092
			c0.773,1.627,1.16,3.502,1.16,5.627v33.6H776.469z"/>
		<path fill="#165481" stroke="#3E6A74" stroke-width="0.5" stroke-miterlimit="10" d="M832.137,269.559h-7.082
			c-3.832,0-7.313-0.453-10.445-1.357c-3.137-0.905-5.941-2.157-8.422-3.758s-4.629-3.495-6.453-5.687
			c-1.824-2.188-3.336-4.558-4.543-7.102s-2.105-5.228-2.695-8.048c-0.59-2.818-0.887-5.672-0.887-8.558v-4.761
			c0-1.313,0.055-2.748,0.156-4.309c0.105-1.562,0.328-3.114,0.672-4.662c0.34-1.549,0.824-3.043,1.453-4.486
			c0.633-1.441,1.477-2.715,2.539-3.816c1.063-1.101,2.355-1.985,3.875-2.654c1.523-0.67,3.359-1.004,5.508-1.004
			c1.496,0,2.801,0.156,3.918,0.473c1.113,0.314,2.102,0.833,2.969,1.554c0.867,0.722,1.645,1.692,2.34,2.912
			s1.387,2.734,2.066,4.544c0.629-1.861,1.344-3.402,2.145-4.623c0.801-1.22,1.707-2.189,2.715-2.91
			c1.014-0.723,2.133-1.228,3.363-1.517c1.234-0.288,2.598-0.433,4.094-0.433c1.941,0,3.66,0.263,5.156,0.787
			c1.492,0.524,2.793,1.238,3.895,2.145c1.104,0.906,2.023,1.961,2.773,3.167c0.746,1.207,1.352,2.506,1.809,3.896
			c0.463,1.392,0.789,2.834,0.984,4.328c0.195,1.495,0.297,2.979,0.297,4.446v6.769c0,2.203-0.285,4.412-0.848,6.629
			c-0.566,2.218-1.449,4.205-2.656,5.961c-1.207,1.759-2.754,3.188-4.645,4.289c-1.887,1.103-4.145,1.652-6.766,1.652
			c-2.492,0-4.676-0.479-6.551-1.437c-1.875-0.957-3.439-2.282-4.684-3.974c-1.246-1.692-2.186-3.699-2.814-6.021
			s-0.945-4.846-0.945-7.574v-6.138c0-1.94-0.146-3.771-0.453-5.489c-0.301-1.717-0.793-3.219-1.473-4.505
			c-0.684-1.285-1.57-2.302-2.656-3.049c-1.09-0.748-2.434-1.122-4.033-1.122c-1.393,0-2.57,0.27-3.539,0.807
			c-0.975,0.538-1.785,1.254-2.441,2.145c-0.656,0.894-1.16,1.908-1.512,3.051c-0.355,1.141-0.625,2.309-0.811,3.502
			c-0.184,1.193-0.297,2.374-0.336,3.541s-0.059,2.21-0.059,3.128v4.524c0,4.25,0.609,8.17,1.832,11.765
			c1.219,3.594,3.008,6.702,5.371,9.325c2.359,2.623,5.277,4.669,8.754,6.138c3.473,1.47,7.469,2.204,11.98,2.204h7.082v5.313
			H832.137z M838.746,228.126c0-1.103-0.027-2.21-0.078-3.325c-0.051-1.113-0.172-2.195-0.354-3.246
			c-0.186-1.049-0.471-2.02-0.863-2.91c-0.395-0.892-0.939-1.68-1.633-2.361c-0.695-0.682-1.564-1.213-2.6-1.594
			c-1.035-0.379-2.301-0.57-3.797-0.57c-2.02,0-3.65,0.302-4.896,0.904c-1.246,0.604-2.211,1.496-2.893,2.677
			c-0.684,1.181-1.145,2.643-1.379,4.387c-0.232,1.745-0.354,3.759-0.354,6.04v6.531c0,4.854,0.762,8.414,2.283,10.683
			c1.521,2.271,3.936,3.403,7.238,3.403c1.469,0,2.715-0.21,3.738-0.629c1.023-0.42,1.883-0.99,2.578-1.713
			c0.691-0.721,1.238-1.555,1.633-2.498c0.391-0.944,0.695-1.94,0.902-2.99c0.211-1.049,0.344-2.111,0.395-3.188
			s0.078-2.099,0.078-3.068V228.126L838.746,228.126z"/>
		<path fill="#165481" stroke="#3E6A74" stroke-width="0.5" stroke-miterlimit="10" d="M890.48,245.753
			c-0.027,2.597-0.234,5.192-0.629,7.791c-0.395,2.597-1.043,4.997-1.949,7.2c-0.902,2.203-2.117,4.092-3.637,5.666
			c-1.523,1.572-3.426,2.623-5.707,3.146l-0.473-4.683c0.945,0,1.836-0.419,2.676-1.259s1.574-2.065,2.203-3.68
			c0.629-1.613,1.129-3.586,1.496-5.922c0.367-2.334,0.551-4.996,0.551-7.986V231.43c0-2.701-0.156-5.129-0.473-7.279
			c-0.314-2.15-0.859-3.967-1.633-5.449c-0.773-1.48-1.824-2.616-3.148-3.403s-3.008-1.181-5.055-1.181
			c-2.258,0-4.098,0.4-5.527,1.199c-1.43,0.802-2.547,1.955-3.344,3.463c-0.801,1.51-1.352,3.352-1.652,5.529
			c-0.305,2.176-0.453,4.629-0.453,7.356v14.36c0,2.938,0.129,5.574,0.391,7.91c0.266,2.334,0.633,4.308,1.105,5.92
			c0.469,1.613,1.055,2.854,1.75,3.72c0.695,0.864,1.473,1.298,2.34,1.298l-0.078,4.684c-1.547-0.289-2.891-0.847-4.035-1.673
			c-1.141-0.827-2.117-1.836-2.93-3.03c-0.813-1.192-1.48-2.543-2.008-4.053c-0.523-1.508-0.93-3.082-1.219-4.722
			s-0.492-3.317-0.609-5.036c-0.117-1.718-0.176-3.391-0.176-5.018v-14.203c0-1.731,0.09-3.488,0.273-5.272
			c0.184-1.782,0.5-3.508,0.945-5.174c0.443-1.665,1.055-3.228,1.826-4.683c0.773-1.455,1.76-2.729,2.953-3.816
			c1.191-1.088,2.621-1.947,4.289-2.577c1.664-0.63,3.613-0.944,5.84-0.944c2.26,0,4.23,0.275,5.924,0.826s3.137,1.313,4.326,2.282
			c1.195,0.972,2.174,2.14,2.936,3.502c0.758,1.364,1.363,2.866,1.809,4.505c0.445,1.641,0.754,3.385,0.926,5.233
			c0.168,1.851,0.254,3.758,0.254,5.726L890.48,245.753z"/>
		<path fill="#165481" stroke="#3E6A74" stroke-width="0.5" stroke-miterlimit="10" d="M949.336,248.507
			c0,2.021-0.289,3.941-0.863,5.765c-0.578,1.824-1.371,3.517-2.383,5.076c-1.008,1.562-2.207,2.971-3.598,4.229
			c-1.393,1.259-2.887,2.335-4.488,3.228c-1.598,0.891-3.27,1.572-5.016,2.045c-1.742,0.473-3.496,0.709-5.254,0.709
			c-2.672,0-5.307-0.524-7.889-1.574c-2.586-1.049-4.896-2.504-6.943-4.367c-2.047-1.862-3.699-4.078-4.957-6.649
			c-1.258-2.569-1.893-5.391-1.893-8.46V236.9c0-3.148,0.566-6.061,1.695-8.735c1.125-2.676,2.621-5.011,4.484-7.004
			s3.984-3.593,6.375-4.8c2.387-1.207,4.84-1.928,7.355-2.164l-2.516-4.84h7.906l-2.088,4.84c2.549,0.21,5.021,0.904,7.42,2.085
			c2.396,1.181,4.537,2.769,6.412,4.762s3.385,4.334,4.523,7.022c1.141,2.688,1.711,5.634,1.711,8.834v11.606H949.336z
			 M943.828,236.9c0-2.912-0.34-5.463-1.023-7.653c-0.68-2.188-1.654-4.033-2.93-5.528c-1.273-1.494-2.809-2.642-4.604-3.441
			c-1.799-0.801-3.799-1.279-6-1.438l1.262,25.732h-5.863l1.297-25.732c-2.047,0.211-3.953,0.729-5.723,1.555
			c-1.773,0.826-3.301,1.98-4.586,3.463c-1.285,1.481-2.297,3.306-3.027,5.47c-0.738,2.164-1.102,4.688-1.102,7.573v11.606
			c0,2.021,0.379,4.009,1.141,5.961c0.758,1.955,1.848,3.706,3.266,5.253c1.414,1.549,3.121,2.795,5.113,3.738
			s4.223,1.416,6.688,1.416c2.363,0,4.527-0.438,6.492-1.316c1.969-0.879,3.66-2.066,5.078-3.563
			c1.414-1.495,2.523-3.232,3.324-5.213c0.801-1.981,1.199-4.072,1.199-6.276V236.9H943.828z"/>
		<path fill="#165481" stroke="#3E6A74" stroke-width="0.5" stroke-miterlimit="10" d="M994.695,245.753
			c-0.023,2.597-0.234,5.192-0.629,7.791c-0.391,2.597-1.043,4.997-1.945,7.2c-0.906,2.203-2.121,4.092-3.641,5.666
			c-1.523,1.572-3.422,2.623-5.707,3.146l-0.469-4.683c0.941,0,1.832-0.419,2.672-1.259s1.574-2.065,2.207-3.68
			c0.629-1.612,1.125-3.586,1.492-5.922c0.367-2.334,0.551-4.996,0.551-7.986V231.43c0-2.701-0.156-5.129-0.473-7.279
			c-0.313-2.15-0.859-3.967-1.633-5.449c-0.773-1.48-1.82-2.616-3.146-3.403s-3.012-1.181-5.059-1.181
			c-2.254,0-4.098,0.4-5.527,1.199c-1.43,0.802-2.543,1.955-3.344,3.463c-0.801,1.51-1.352,3.352-1.652,5.529
			c-0.301,2.176-0.451,4.629-0.451,7.356v14.36c0,2.938,0.133,5.574,0.395,7.91c0.262,2.334,0.629,4.308,1.102,5.92
			c0.473,1.613,1.055,2.854,1.75,3.72c0.695,0.864,1.477,1.298,2.34,1.298l-0.078,4.684c-1.547-0.289-2.891-0.847-4.031-1.673
			c-1.141-0.827-2.121-1.836-2.934-3.03c-0.813-1.192-1.48-2.543-2.004-4.053c-0.527-1.508-0.934-3.082-1.223-4.722
			s-0.492-3.317-0.609-5.036c-0.117-1.718-0.176-3.391-0.176-5.018v-14.203c0-1.731,0.09-3.488,0.273-5.272
			c0.184-1.782,0.5-3.508,0.945-5.174c0.443-1.665,1.055-3.228,1.83-4.683c0.773-1.455,1.756-2.729,2.949-3.816
			c1.191-1.088,2.621-1.947,4.289-2.577c1.664-0.63,3.613-0.944,5.844-0.944c2.256,0,4.23,0.275,5.924,0.826
			c1.691,0.551,3.133,1.313,4.326,2.282c1.191,0.972,2.168,2.14,2.932,3.502c0.762,1.364,1.361,2.866,1.809,4.505
			c0.449,1.641,0.754,3.385,0.926,5.233s0.258,3.758,0.258,5.726L994.695,245.753z"/>
	</g>
</g>
<g id="Money_That_Helps">
	<path fill="#F74D10" d="M427.829,313.433c0,4.639-3.601,6.957-10.797,6.957c-6.617,0-9.926-1.637-9.926-4.908h2.344
		c0,2.115,2.526,3.174,7.582,3.174c5.694,0,8.545-1.74,8.545-5.223v-3.063c0-2.607-1.49-3.912-4.467-3.912h-1.125v-1.587h1.125
		c1.711,0,2.957-0.538,3.737-1.614c0.781-1.075,1.172-2.739,1.172-4.991c0-1.895-0.405-3.277-1.219-4.151
		c-0.813-0.873-2.078-1.31-3.801-1.31c-2.375,0-4.133,0.812-5.277,2.436c0.859,1.636,1.291,3.722,1.291,6.256
		c0,6.778-2.649,10.167-7.953,10.167c-5.463,0-8.192-3.519-8.192-10.556c0-6.717,2.684-10.074,8.047-10.074
		c1.34,0,2.49,0.222,3.449,0.664c0.961,0.443,1.76,1.089,2.397,1.938c1.502-1.722,3.605-2.582,6.313-2.582
		c4.797,0,7.194,2.44,7.194,7.324c0,3.654-1.487,6.127-4.465,7.418c2.683,0.554,4.023,2.055,4.023,4.503L427.829,313.433
		L427.829,313.433z M414.965,301.494c0-5.819-2.016-8.729-6.051-8.729c-3.986,0-5.98,2.779-5.98,8.34c0,5.894,1.994,8.84,5.98,8.84
		C412.95,309.945,414.965,307.128,414.965,301.494z"/>
	<path fill="#F74D10" d="M450.008,311.236c0,3.088-0.678,5.386-2.031,6.893c-1.353,1.507-3.426,2.261-6.219,2.261
		c-5.276,0-7.916-3.051-7.916-9.152c0-0.887,0.187-2.214,0.553-3.985h1.994c-0.16,1.083-0.278,1.953-0.36,2.611
		c-0.078,0.658-0.119,1.104-0.119,1.338c0,4.994,1.951,7.491,5.85,7.491c4.146,0,6.22-2.484,6.22-7.455v-14.079
		c-0.013-2.928-1.169-4.393-3.47-4.393c-2.151,0-3.229,1.784-3.229,5.353v4.041h-1.938v-4.041c0-3.567-1.362-5.353-4.096-5.353
		h-2.527v-1.716h2.455c2.533,0,4.25,0.947,5.148,2.843c0.858-1.896,2.348-2.843,4.465-2.843c3.479,0,5.223,2.036,5.223,6.107
		L450.008,311.236L450.008,311.236z"/>
	<path fill="#F74D10" d="M459.084,317.104c1.268-1.118,3.426-2.048,6.477-2.785c-7.146-2.793-10.721-7.442-10.721-13.95
		c0-6.15,2.219-9.228,6.66-9.228c2.684,0,4.633,1.096,5.852,3.285c1.255-2.264,2.921-3.396,5-3.396c1.156,0,2.148,0.287,2.98,0.857
		c0.828,0.572,1.521,1.438,2.074,2.594c1.305-2.228,3.248-3.34,5.832-3.34c4.723,0,7.086,2.848,7.086,8.543
		c0,2.83-0.832,6.114-2.492,9.854H485.6c1.783-3.752,2.677-7.036,2.677-9.854c0-2.336-0.412-4.06-1.236-5.166
		c-0.824-1.107-2.09-1.662-3.801-1.662c-3.234,0-4.854,1.938-4.854,5.813v5.425h-1.92l-0.035-5.425c0-3.925-1.358-5.887-4.078-5.887
		c-2.657,0-3.985,1.962-3.985,5.887v5.425h-1.881l-0.021-5.425c-0.024-3.876-1.68-5.813-4.965-5.813
		c-3.074,0-4.613,2.541-4.613,7.621c0,7.063,4.554,11.656,13.656,13.784c5.117,0.775,8.543,2.763,10.277,5.96h-2.474
		c-1.537-2.569-4.647-4.096-9.336-4.576c-3.766,0.025-6.668,0.911-8.711,2.657L459.084,317.104z"/>
	<path fill="#F74D10" d="M510.918,305.275c0,4.676-0.775,9.714-2.326,15.113h-2.123c1.603-6.312,2.4-11.349,2.4-15.113
		c0-8.327-2.006-12.491-6.016-12.491c-4.035,0-6.054,4.164-6.054,12.491c0,1.821,0.207,3.983,0.617,6.486
		c0.414,2.503,1.021,5.379,1.818,8.627h-2.123c-1.563-5.313-2.343-10.353-2.343-15.113c0-9.471,2.693-14.207,8.082-14.207
		C508.231,291.068,510.918,295.805,510.918,305.275z"/>
	<path fill="#F74D10" d="M518.575,317.806h1.862v0.813l-1.457,5.904h-1.145l0.738-5.904L518.575,317.806L518.575,317.806z"/>
	<path fill="#F74D10" d="M555.793,308.137c0,4.539-0.684,8.531-2.049,11.977h-2.252c1.488-4.354,2.232-8.348,2.232-11.977
		c0-4.354-1.969-6.531-5.904-6.531c-3.174,0-4.764,2.012-4.764,6.033l-0.033,6.07h-2.16v-6.07c0-2.066-0.379-3.589-1.135-4.566
		c-0.758-0.979-1.967-1.467-3.629-1.467c-3.936,0-5.9,2.055-5.9,6.162c0,3.717,0.625,7.83,1.881,12.346h-2.084
		c-0.629-1.771-1.094-3.672-1.396-5.702c-0.301-2.029-0.451-4.27-0.451-6.717c0-3.444,1.373-6.784,4.115-10.021
		c2.756-3.26,8.256-5.468,16.496-6.624l0.646,1.753c-8.867,0.996-14.824,3.862-17.861,8.6c1.463-1.059,2.947-1.588,4.447-1.588
		c2.729,0,4.736,1.273,6.016,3.819c1.18-2.546,3.168-3.819,5.961-3.819C553.184,299.814,555.793,302.589,555.793,308.137z"/>
	<path fill="#F74D10" d="M588.176,304.797c0,4.847-0.781,9.982-2.344,15.408h-2.012c1.563-6.299,2.344-11.436,2.344-15.408
		c0-4.035-0.484-7.049-1.457-9.042s-2.418-2.989-4.336-2.989c-3.434,0-5.148,3.53-5.148,10.592v7.678h-2.104v-7.678
		c0-7.062-1.693-10.592-5.076-10.592c-3.824,0-5.738,4.055-5.738,12.16c0,3.716,0.775,8.81,2.326,15.279h-2.068
		c-1.549-5.573-2.324-10.709-2.324-15.408c0-9.152,2.609-13.729,7.824-13.729c2.965,0,5.012,1.826,6.145,5.479
		c1.34-3.653,3.42-5.479,6.238-5.479C585.598,291.068,588.176,295.645,588.176,304.797z"/>
	<path fill="#F74D10" d="M608.805,311.2c0,6.149-2.578,9.226-7.73,9.226c-5.623,0-8.434-3.395-8.434-10.186
		c0-6.926,2.711-10.389,8.137-10.389c2.484,0,4.473,1.094,5.961,3.283v-6.126c0-2.817-2.006-4.226-6.016-4.226
		c-3.359,0-5.039,1.212-5.039,3.635h-2.176c0-3.579,2.404-5.369,7.215-5.369c5.387,0,8.082,1.992,8.082,5.979V311.2z
		 M606.738,311.145c0-6.359-2.006-9.539-6.016-9.539c-4.012,0-6.016,2.865-6.016,8.599c0,5.659,2.146,8.488,6.439,8.488
		C604.863,318.691,606.727,316.176,606.738,311.145z"/>
	<path fill="#F74D10" d="M629.785,311.901c0,5.671-2.688,8.506-8.063,8.506c-2.781,0-4.824-0.704-6.129-2.112
		c-1.303-1.408-1.955-3.521-1.955-6.339c0-0.467,0.025-0.983,0.074-1.55c0.049-0.565,0.123-1.182,0.221-1.846h2.049
		c-0.1,0.737-0.172,1.405-0.221,2.003c-0.051,0.597-0.074,1.129-0.074,1.596c0,4.354,2.012,6.532,6.035,6.532
		c3.984,0,5.988-2.179,6.016-6.532v-13.638c-0.027-3.838-1.852-5.756-5.48-5.756c-1.871,0-3.223,0.412-4.051,1.235
		c-0.832,0.824-1.246,2.056-1.246,3.69c0,0.554,0.021,1.059,0.064,1.513c0.043,0.456,0.107,0.886,0.193,1.292h-2.012
		c-0.221-1.305-0.332-2.313-0.332-3.025c0-4.293,2.455-6.439,7.363-6.439c5.029,0,7.547,2.497,7.547,7.49V311.901L629.785,311.901z"
		/>
	<path fill="#F74D10" d="M638.844,317.104c1.268-1.118,3.426-2.048,6.477-2.785c-7.146-2.793-10.719-7.442-10.719-13.95
		c0-6.15,2.219-9.228,6.66-9.228c2.682,0,4.633,1.096,5.85,3.285c1.256-2.264,2.92-3.396,5-3.396c1.156,0,2.15,0.287,2.98,0.857
		c0.83,0.572,1.521,1.438,2.076,2.594c1.305-2.228,3.246-3.34,5.832-3.34c4.723,0,7.086,2.848,7.086,8.543
		c0,2.83-0.832,6.114-2.492,9.854h-2.234c1.785-3.752,2.676-7.036,2.676-9.854c0-2.336-0.41-4.06-1.234-5.166
		c-0.824-1.107-2.092-1.662-3.801-1.662c-3.236,0-4.855,1.938-4.855,5.813v5.425h-1.918l-0.037-5.425
		c0-3.925-1.357-5.887-4.076-5.887c-2.658,0-3.986,1.962-3.986,5.887v5.425h-1.881l-0.02-5.425c-0.025-3.876-1.68-5.813-4.965-5.813
		c-3.076,0-4.613,2.541-4.613,7.621c0,7.063,4.553,11.656,13.656,13.784c5.117,0.775,8.543,2.763,10.277,5.96h-2.473
		c-1.539-2.569-4.65-4.096-9.338-4.576c-3.764,0.025-6.666,0.911-8.709,2.657L638.844,317.104z"/>
	<path fill="#F74D10" d="M690.676,305.275c0,4.676-0.773,9.714-2.324,15.113h-2.121c1.598-6.312,2.398-11.349,2.398-15.113
		c0-8.327-2.004-12.491-6.016-12.491c-4.035,0-6.051,4.164-6.051,12.491c0,1.821,0.201,3.983,0.615,6.486
		c0.41,2.503,1.018,5.379,1.816,8.627h-2.121c-1.563-5.313-2.344-10.353-2.344-15.113c0-9.471,2.695-14.207,8.082-14.207
		C687.988,291.068,690.676,295.805,690.676,305.275z"/>
	<path fill="#F74D10" d="M713.539,300.055c0,2.115-1.305,3.739-3.91,4.871c3.051,0.85,4.574,3.303,4.574,7.362
		c0,2.72-0.773,4.749-2.324,6.09s-3.867,2.012-6.957,2.012c-6.531,0-9.797-3.573-9.797-10.722v-5.628
		c0-3.838,0.441-8.168,1.328-12.99l2.121-0.019c-0.945,5.253-1.422,9.516-1.422,12.787v5.85c0,3.015,0.648,5.266,1.949,6.754
		c1.297,1.488,3.242,2.232,5.84,2.232c2.484,0,4.313-0.578,5.48-1.734c1.166-1.156,1.754-2.934,1.754-5.333
		c0-3.924-1.871-5.886-5.609-5.886h-3.027v-1.568h2.824c1.781,0,3.086-0.333,3.91-0.997c0.824-0.663,1.238-1.685,1.238-3.063
		c0-1.647-0.746-2.939-2.234-3.875c-1.5-0.946-2.293-2.67-2.379-5.166h2.082c0,2.041,0.758,3.586,2.27,4.632
		C712.777,296.708,713.539,298.172,713.539,300.055z"/>
	<path fill="#F74D10" d="M749.078,310.222c0,6.778-2.891,10.168-8.672,10.168c-5.992,0-8.988-3.39-8.988-10.168
		c0-6.594,3.223-9.995,9.672-10.204c1.5-1.354,2.25-2.928,2.25-4.724c0-1.687-1.164-2.528-3.486-2.528
		c-2.582,0-3.875,0.813-3.875,2.437c0,0.308,0.008,0.585,0.025,0.829c0.021,0.248,0.039,0.476,0.066,0.685l-1.883,0.036
		c-0.039-0.258-0.07-0.527-0.094-0.813c-0.023-0.283-0.035-0.578-0.035-0.886c0-2.682,1.93-4.022,5.793-4.022
		c3.691,0,5.535,1.488,5.535,4.466c0,0.774-0.191,1.569-0.582,2.381c-0.387,0.812-0.953,1.647-1.707,2.511
		c2.055,0.564,3.566,1.656,4.531,3.274C748.594,305.279,749.078,307.466,749.078,310.222z M747.047,310.222
		c0-5.646-2.195-8.487-6.586-8.524c-2.352,0.025-4.102,0.734-5.25,2.132s-1.727,3.527-1.727,6.394c0,5.646,2.279,8.471,6.848,8.471
		C744.809,318.691,747.047,315.868,747.047,310.222z"/>
	<path fill="#F74D10" d="M769.707,311.901c0,5.671-2.688,8.506-8.063,8.506c-2.781,0-4.824-0.704-6.129-2.112
		c-1.301-1.408-1.953-3.521-1.953-6.339c0-0.467,0.023-0.983,0.074-1.55c0.047-0.565,0.121-1.182,0.219-1.846h2.051
		c-0.102,0.737-0.172,1.405-0.223,2.003c-0.051,0.597-0.074,1.129-0.074,1.596c0,4.354,2.012,6.532,6.035,6.532
		c3.984,0,5.988-2.179,6.016-6.532v-13.638c-0.027-3.838-1.852-5.756-5.48-5.756c-1.871,0-3.223,0.412-4.051,1.235
		c-0.832,0.824-1.246,2.056-1.246,3.69c0,0.554,0.021,1.059,0.066,1.513c0.043,0.456,0.105,0.886,0.191,1.292h-2.012
		c-0.219-1.305-0.332-2.313-0.332-3.025c0-4.293,2.457-6.439,7.363-6.439c5.031,0,7.547,2.497,7.547,7.49V311.901L769.707,311.901z"
		/>
	<path fill="#F74D10" d="M774.93,291.031h2.012v12.271c0.922-2.3,2.969-3.45,6.145-3.45c5.314,0,7.969,3.284,7.969,9.854
		c0,7.135-2.654,10.702-7.969,10.702c-2.758,0-4.805-0.839-6.145-2.52c-1.344-1.679-2.012-4.223-2.012-7.63V291.031z
		 M776.957,310.259c0,5.622,2.043,8.434,6.129,8.434c3.949,0,5.922-2.995,5.922-8.986c0-5.399-1.969-8.101-5.904-8.101
		C779.008,301.604,776.957,304.489,776.957,310.259z"/>
	<path fill="#F74D10" d="M811.668,311.2c0,6.149-2.578,9.226-7.73,9.226c-5.625,0-8.434-3.395-8.434-10.186
		c0-6.926,2.711-10.389,8.137-10.389c2.484,0,4.473,1.094,5.961,3.283v-6.126c0-2.817-2.008-4.226-6.016-4.226
		c-3.359,0-5.039,1.212-5.039,3.635h-2.176c0-3.579,2.402-5.369,7.215-5.369c5.387,0,8.082,1.992,8.082,5.979V311.2z
		 M809.602,311.145c0-6.359-2.008-9.539-6.016-9.539c-4.012,0-6.016,2.865-6.016,8.599c0,5.659,2.145,8.488,6.438,8.488
		C807.727,318.691,809.59,316.176,809.602,311.145z"/>
	<path fill="#F74D10" d="M832.648,308.579c0,7.886-2.727,11.828-8.176,11.828c-5.328,0-7.988-3.771-7.988-11.313
		c0-0.996,0.031-1.945,0.098-2.851c0.07-0.904,0.172-1.78,0.305-2.629h2.143c-0.16,1.156-0.277,2.184-0.359,3.081
		c-0.078,0.897-0.117,1.696-0.117,2.397c0,6.397,2.004,9.597,6.016,9.597c4.008,0,6.016-3.37,6.016-10.112
		c0-3.938-1.344-7.061-4.023-9.374c-2.672-2.3-4.004-5.019-4.004-8.155h2.014c0,2.387,1.344,4.842,4.039,7.362
		C831.301,300.945,832.648,304.335,832.648,308.579z"/>
	<path fill="#F74D10" d="M864.754,308.137c0,4.539-0.684,8.531-2.047,11.977h-2.254c1.488-4.354,2.234-8.348,2.234-11.977
		c0-4.354-1.971-6.531-5.906-6.531c-3.172,0-4.758,2.012-4.758,6.033l-0.039,6.07h-2.16v-6.07c0-2.066-0.375-3.589-1.133-4.566
		c-0.76-0.979-1.967-1.467-3.625-1.467c-3.939,0-5.906,2.055-5.906,6.162c0,3.717,0.629,7.83,1.883,12.346h-2.086
		c-0.625-1.771-1.09-3.672-1.395-5.702c-0.303-2.029-0.449-4.27-0.449-6.717c0-3.444,1.371-6.784,4.111-10.021
		c2.76-3.26,8.256-5.468,16.496-6.624l0.648,1.753c-8.871,0.996-14.824,3.862-17.863,8.6c1.465-1.059,2.945-1.588,4.445-1.588
		c2.734,0,4.738,1.273,6.016,3.819c1.186-2.546,3.168-3.819,5.961-3.819C862.145,299.814,864.754,302.589,864.754,308.137z"/>
	<path fill="#F74D10" d="M885.363,311.901c0,5.671-2.688,8.506-8.063,8.506c-2.781,0-4.824-0.704-6.125-2.112
		c-1.305-1.408-1.957-3.521-1.957-6.339c0-0.467,0.023-0.983,0.074-1.55c0.047-0.565,0.121-1.182,0.223-1.846h2.047
		c-0.098,0.737-0.172,1.405-0.223,2.003c-0.047,0.597-0.074,1.129-0.074,1.596c0,4.354,2.012,6.532,6.035,6.532
		c3.984,0,5.992-2.179,6.016-6.532v-13.638c-0.023-3.838-1.852-5.756-5.48-5.756c-1.871,0-3.219,0.412-4.051,1.235
		c-0.828,0.824-1.246,2.056-1.246,3.69c0,0.554,0.023,1.059,0.066,1.513c0.043,0.456,0.105,0.886,0.191,1.292h-2.008
		c-0.223-1.305-0.336-2.313-0.336-3.025c0-4.293,2.457-6.439,7.363-6.439c5.029,0,7.547,2.497,7.547,7.49V311.901L885.363,311.901z"
		/>
	<path fill="#F74D10" d="M906.344,309.724c0,7.123-2.664,10.685-7.988,10.685c-5.449,0-8.176-3.556-8.176-10.665
		c0-5.979,2.539-9.257,7.621-9.835l0.164-1.883c0.039-0.223,0.059-0.438,0.059-0.646c0-1.107-0.566-1.919-1.699-2.436
		c-1.34-0.604-2.012-1.901-2.012-3.895h2.16c0,1.378,0.609,2.454,1.828,3.229c0.527,0.346,0.914,0.761,1.16,1.246
		c0.246,0.486,0.371,1.062,0.371,1.727c0,0.109-0.008,0.218-0.021,0.322c-0.012,0.104-0.021,0.219-0.039,0.342l-0.162,1.993
		C904.098,300.779,906.344,304.053,906.344,309.724z M904.277,309.724c-0.023-5.413-1.988-8.118-5.887-8.118
		c-4.098,0-6.145,2.682-6.145,8.045c0,6.016,2.047,9.022,6.145,9.022C902.316,318.673,904.277,315.69,904.277,309.724z"/>
	<path fill="#F74D10" d="M926.957,308.579c0,7.886-2.727,11.828-8.176,11.828c-5.328,0-7.988-3.771-7.988-11.313
		c0-0.996,0.031-1.945,0.098-2.851c0.07-0.904,0.174-1.78,0.307-2.629h2.141c-0.16,1.156-0.277,2.184-0.359,3.081
		c-0.078,0.897-0.117,1.696-0.117,2.397c0,6.397,2.004,9.597,6.016,9.597c4.008,0,6.016-3.37,6.016-10.112
		c0-3.938-1.344-7.061-4.021-9.374c-2.672-2.3-4.004-5.019-4.004-8.155h2.012c0,2.387,1.344,4.842,4.039,7.362
		C925.609,300.945,926.957,304.335,926.957,308.579z"/>
</g>
<g>
</g>
<g>
</g>
<g>
</g>
<g>
</g>
<g>
</g>
<g>
</g>
</svg>
